<?xml version="1.0" encoding="UTF-8" standalone="no"?>
<svg
   width="10.559073mm"
   height="10.57381mm"
   viewBox="0 0 10.559073 10.57381"
   version="1.1"
   id="svg5"
   xml:space="preserve"
   xmlns="http://www.w3.org/2000/svg"
   xmlns:svg="http://www.w3.org/2000/svg"
   xmlns:rdf="http://www.w3.org/1999/02/22-rdf-syntax-ns#"
   xmlns:cc="http://creativecommons.org/ns#"
   xmlns:dc="http://purl.org/dc/elements/1.1/"><metadata
     id="metadata24"><rdf:RDF><cc:Work
         rdf:about=""><dc:format>image/svg+xml</dc:format><dc:type
           rdf:resource="http://purl.org/dc/dcmitype/StillImage" /></cc:Work></rdf:RDF></metadata><defs
     id="defs2" /><g
     id="layer1"
     transform="translate(-18.544425,-6.6356798)"
     style="fill:#ffffff"><path
       style="fill:#ffffff;stroke-width:0.039707"
       d="m 23.144358,17.1757 c -0.785309,-0.0998 -1.594835,-0.4042 -2.28086,-0.85766 l -0.321429,-0.21246 -0.375158,-0.35504 -0.375159,-0.35505 -0.250556,-0.35133 c -0.137807,-0.19322 -0.345288,-0.53972 -0.461071,-0.76999 l -0.210513,-0.41866 -0.104151,-0.34146 c -0.131883,-0.43238 -0.220926,-0.93538 -0.220996,-1.2484 l -3.9e-5,-0.24331 0.05968,-0.0495 c 0.03282,-0.0272 0.105893,-0.0495 0.162373,-0.0495 h 0.10269 l 0.06275,0.0628 0.06275,0.0627 0.05263,0.40877 c 0.07217,0.5605 0.178683,0.95896 0.377814,1.41337 l 0.168777,0.38515 0.232719,0.34816 0.232719,0.34816 0.344416,0.34965 0.344416,0.34965 0.297802,0.20918 c 0.544201,0.38226 1.058743,0.60993 1.727254,0.76428 l 0.357363,0.0825 0.517805,0.02 0.517804,0.02 0.4137,-0.0655 0.4137,-0.0655 0.358973,-0.1229 c 1.429802,-0.4895 2.541366,-1.60406 3.019111,-3.02723 0.14295,-0.42584 0.20947,-0.77841 0.240576,-1.27507 l 0.02733,-0.43678 -0.06636,-0.45098 C 28.456869,10.51308 28.221148,9.8986598 27.779874,9.2358398 l -0.252823,-0.37972 -0.35303,-0.34031 -0.353029,-0.3403 -0.313085,-0.21126 c -0.172203,-0.1162 -0.476658,-0.28876 -0.676576,-0.38346 l -0.363486,-0.17218 -0.473781,-0.11775 c -0.260579,-0.0648 -0.594949,-0.12918 -0.743045,-0.14317 l -0.269265,-0.0254 -0.0649,-0.0991 -0.0649,-0.0991 0.03636,-0.102 c 0.02,-0.0561 0.06663,-0.121 0.103619,-0.14421 l 0.06726,-0.0422 0.37026,0.0468 c 1.356779,0.17137 2.470837,0.7656 3.405078,1.81624 l 0.282462,0.31766 0.234389,0.39707 c 0.387915,0.65714 0.629767,1.3741302 0.715304,2.1205702 0.05399,0.47112 0.04958,0.75866 -0.01976,1.28765 -0.107612,0.8209 -0.381647,1.55222 -0.839444,2.24025 l -0.224887,0.33798 -0.367114,0.38249 -0.367115,0.38248 -0.316885,0.22815 c -0.624509,0.44965 -1.277012,0.73847 -2.046107,0.90567 l -0.365078,0.0794 -0.555898,0.0157 -0.555897,0.0157 z m -0.08297,-0.87568 C 22.32652,16.18456 21.380363,15.70598 20.797783,15.15504 l -0.148901,-0.14081 v -0.12297 -0.12298 l 0.04765,-0.0476 c 0.0262,-0.0262 0.09822,-0.0477 0.160024,-0.0477 h 0.112375 l 0.246973,0.20944 c 0.489605,0.4152 1.054895,0.71217 1.653432,0.86862 l 0.300941,0.0787 0.461456,0.0229 0.461455,0.0228 0.392245,-0.07 c 0.427247,-0.0762 0.729121,-0.17743 1.127344,-0.37798 1.02439,-0.51591 1.788009,-1.50888 2.050386,-2.66624 l 0.0662,-0.29198 0.001,-0.53604 0.001,-0.53605 -0.08683,-0.35036 c -0.04775,-0.19269 -0.152662,-0.5036 -0.23313,-0.69091 L 27.265106,10.01533 27.050404,9.7135598 c -0.521031,-0.73231 -1.192502,-1.23502 -2.014191,-1.50796 l -0.357363,-0.11871 -0.337509,-0.0455 -0.33751,-0.0455 -0.06949,-0.0626 -0.06949,-0.0626 v -0.0931 -0.0931 l 0.08348,-0.0835 0.08348,-0.0835 0.224248,0.0256 c 0.569741,0.0651 1.007961,0.18663 1.493533,0.41417 0.465784,0.21828 0.781352,0.44399 1.197844,0.85676 l 0.362666,0.35942 0.222818,0.34329 c 0.424802,0.6545002 0.659842,1.3383202 0.721338,2.0986902 l 0.02728,0.33751 -0.04622,0.42897 -0.04622,0.42898 -0.100004,0.34509 c -0.114272,0.39435 -0.330182,0.87231 -0.550685,1.21908 l -0.151494,0.23825 -0.440776,0.43677 -0.440782,0.43678 -0.345761,0.21212 c -0.405498,0.24876 -0.801002,0.41707 -1.242514,0.52878 l -0.317656,0.0804 -0.655165,0.0138 -0.655165,0.0138 z m 0.67094,-0.90554 c -0.169894,-0.18773 -0.0035,-0.40387 0.310979,-0.40387 0.07902,0 0.272278,-0.0281 0.429461,-0.0624 l 0.285787,-0.0624 0.39707,-0.19536 0.39707,-0.19537 0.219379,-0.18801 c 0.600704,-0.5148 0.958117,-1.16784 1.074395,-1.96308 l 0.04704,-0.32183 -0.02265,-0.27003 c -0.06152,-0.7338 -0.345364,-1.36724 -0.85963,-1.9183902 -0.432949,-0.464 -1.094739,-0.80569 -1.736525,-0.89658 l -0.259038,-0.0367 -0.07528,-0.0681 -0.07527,-0.0681 v -0.0916 -0.0916 l 0.08934,-0.0839 0.08934,-0.0839 0.217985,0.0269 c 0.119892,0.0148 0.370046,0.0709 0.555898,0.12472 l 0.337913,0.0979 0.271615,0.14626 c 0.149389,0.0804 0.41443,0.26039 0.588983,0.39987 l 0.317367,0.25361 0.196136,0.24273 0.196137,0.24273 0.214178,0.4367702 0.214179,0.43678 0.06613,0.2581 0.06613,0.25809 0.02052,0.47649 0.02052,0.47648 -0.08134,0.39284 -0.08134,0.39283 -0.217846,0.44101 -0.217846,0.44101 -0.299152,0.34165 -0.299152,0.34165 -0.297703,0.2058 c -0.395996,0.27375 -0.722015,0.42169 -1.192007,0.54092 l -0.3891,0.0987 H 24.025004 23.798008 Z M 23.466116,14.1544 C 23.161131,14.1095 22.836763,13.98143 22.560087,13.79667 L 22.325966,13.64033 22.14917,13.43202 c -0.233926,-0.27563 -0.363271,-0.50637 -0.47291,-0.84363 l -0.09036,-0.27794 0.0016,-0.35737 0.0016,-0.35736 0.06953,-0.23824 c 0.03824,-0.13104 0.132992,-0.35945 0.210556,-0.50758 l 0.141023,-0.26935 0.285798,-0.2669 0.285797,-0.2669 0.214856,-0.1077402 c 0.118171,-0.0592 0.321351,-0.1351 0.451514,-0.16856 l 0.236657,-0.0608 h 0.333362 0.333363 l 0.243973,0.0629 c 0.134185,0.0346 0.351183,0.11876 0.482215,0.18703 l 0.238242,0.1241302 0.277949,0.27952 0.277949,0.27953 0.124531,0.23824 c 0.06849,0.13104 0.153367,0.35553 0.188608,0.49888 l 0.06408,0.26063 v 0.33769 0.3377 l -0.06339,0.21566 c -0.03484,0.11862 -0.125567,0.33467 -0.201568,0.48011 l -0.138184,0.26444 -0.265762,0.25657 -0.265763,0.25657 -0.295619,0.14887 -0.295619,0.14887 -0.299211,0.0534 c -0.332651,0.0593 -0.436865,0.0613 -0.757802,0.014 z"
       id="path1750" /></g></svg>
